<?xml version='1.0' encoding='UTF-8'?>
<!DOCTYPE svg PUBLIC "-//W3C//DTD SVG 1.0//EN" "http://www.w3.org/TR/2001/REC-SVG-20010904/DTD/svg10.dtd">
<svg viewBox="0 0 1216 880" xmlns="http://www.w3.org/2000/svg" xmlns:inkspace="http://www.inkscape.org/namespaces/inkscape" xmlns:xlink="http://www.w3.org/1999/xlink">
  <defs id="defs_block">
    <filter height="1.504" id="filter_blur" inkspace:collect="always" width="1.1575" x="-0.07875" y="-0.252">
      <feGaussianBlur id="feGaussianBlur3780" inkspace:collect="always" stdDeviation="4.2" />
    </filter>
  </defs>
  <title>blockdiag</title>
  <desc>seqdiag {
  main  -&gt;  DetectionController [label = "init()"];
            DetectionController -&gt;  Leap [label = "Leap.Controller()"];
            DetectionController &lt;--  Leap;

            DetectionController -&gt;  LeapListener [label = "LeapListener()"];
            DetectionController &lt;--  LeapListener;

            DetectionController -&gt;  LeapListener [label = "LeapListener.set_cfc()"];
                                    LeapListener -&gt; PilotingConfiguration [label = "PilotingConfiguration(cfc)"];
                                                    PilotingConfiguration -&gt; StateXYHandler [label = "StateXYHandler.StateXYHandler()"];
                                                    PilotingConfiguration &lt;-- StateXYHandler [label = "all state handlers initialized"];
                                    LeapListener &lt;-- PilotingConfiguration [label = "initialized"];
            DetectionController &lt;--  LeapListener;
  main  &lt;-- DetectionController


}
</desc>
  <rect fill="rgb(0,0,0)" height="717" style="filter:url(#filter_blur);opacity:0.7;fill-opacity:1" width="8" x="127" y="141" />
  <rect fill="rgb(0,0,0)" height="671" style="filter:url(#filter_blur);opacity:0.7;fill-opacity:1" width="8" x="319" y="141" />
  <rect fill="rgb(0,0,0)" height="50" style="filter:url(#filter_blur);opacity:0.7;fill-opacity:1" width="8" x="511" y="207" />
  <rect fill="rgb(0,0,0)" height="50" style="filter:url(#filter_blur);opacity:0.7;fill-opacity:1" width="8" x="703" y="323" />
  <rect fill="rgb(0,0,0)" height="323" style="filter:url(#filter_blur);opacity:0.7;fill-opacity:1" width="8" x="703" y="439" />
  <rect fill="rgb(0,0,0)" height="207" style="filter:url(#filter_blur);opacity:0.7;fill-opacity:1" width="8" x="895" y="505" />
  <rect fill="rgb(0,0,0)" height="65" style="filter:url(#filter_blur);opacity:0.7;fill-opacity:1" width="8" x="1087" y="582" />
  <rect fill="rgb(0,0,0)" height="40" stroke="rgb(0,0,0)" style="filter:url(#filter_blur);opacity:0.7;fill-opacity:1" width="128" x="67" y="46" />
  <rect fill="rgb(0,0,0)" height="40" stroke="rgb(0,0,0)" style="filter:url(#filter_blur);opacity:0.7;fill-opacity:1" width="128" x="259" y="46" />
  <rect fill="rgb(0,0,0)" height="40" stroke="rgb(0,0,0)" style="filter:url(#filter_blur);opacity:0.7;fill-opacity:1" width="128" x="451" y="46" />
  <rect fill="rgb(0,0,0)" height="40" stroke="rgb(0,0,0)" style="filter:url(#filter_blur);opacity:0.7;fill-opacity:1" width="128" x="643" y="46" />
  <rect fill="rgb(0,0,0)" height="40" stroke="rgb(0,0,0)" style="filter:url(#filter_blur);opacity:0.7;fill-opacity:1" width="128" x="835" y="46" />
  <rect fill="rgb(0,0,0)" height="40" stroke="rgb(0,0,0)" style="filter:url(#filter_blur);opacity:0.7;fill-opacity:1" width="128" x="1027" y="46" />
  <path d="M 128 80 L 128 868" fill="none" stroke="rgb(0,0,0)" stroke-dasharray="8 4" />
  <rect fill="moccasin" height="717" stroke="rgb(0,0,0)" width="8" x="124" y="135" />
  <path d="M 320 80 L 320 868" fill="none" stroke="rgb(0,0,0)" stroke-dasharray="8 4" />
  <rect fill="moccasin" height="671" stroke="rgb(0,0,0)" width="8" x="316" y="135" />
  <path d="M 512 80 L 512 868" fill="none" stroke="rgb(0,0,0)" stroke-dasharray="8 4" />
  <rect fill="moccasin" height="50" stroke="rgb(0,0,0)" width="8" x="508" y="201" />
  <path d="M 704 80 L 704 868" fill="none" stroke="rgb(0,0,0)" stroke-dasharray="8 4" />
  <rect fill="moccasin" height="50" stroke="rgb(0,0,0)" width="8" x="700" y="317" />
  <rect fill="moccasin" height="323" stroke="rgb(0,0,0)" width="8" x="700" y="433" />
  <path d="M 896 80 L 896 868" fill="none" stroke="rgb(0,0,0)" stroke-dasharray="8 4" />
  <rect fill="moccasin" height="207" stroke="rgb(0,0,0)" width="8" x="892" y="499" />
  <path d="M 1088 80 L 1088 868" fill="none" stroke="rgb(0,0,0)" stroke-dasharray="8 4" />
  <rect fill="moccasin" height="65" stroke="rgb(0,0,0)" width="8" x="1084" y="576" />
  <rect fill="rgb(255,255,255)" height="40" stroke="rgb(0,0,0)" width="128" x="64" y="40" />
  <text fill="rgb(0,0,0)" font-family="sans-serif" font-size="11" font-style="normal" font-weight="normal" text-anchor="middle" textLength="26" x="128" y="65">main</text>
  <rect fill="rgb(255,255,255)" height="40" stroke="rgb(0,0,0)" width="128" x="256" y="40" />
  <text fill="rgb(0,0,0)" font-family="sans-serif" font-size="11" font-style="normal" font-weight="normal" text-anchor="middle" textLength="107" x="320" y="66">DetectionController</text>
  <rect fill="rgb(255,255,255)" height="40" stroke="rgb(0,0,0)" width="128" x="448" y="40" />
  <text fill="rgb(0,0,0)" font-family="sans-serif" font-size="11" font-style="normal" font-weight="normal" text-anchor="middle" textLength="27" x="512" y="67">Leap</text>
  <rect fill="rgb(255,255,255)" height="40" stroke="rgb(0,0,0)" width="128" x="640" y="40" />
  <text fill="rgb(0,0,0)" font-family="sans-serif" font-size="11" font-style="normal" font-weight="normal" text-anchor="middle" textLength="71" x="704" y="67">LeapListener</text>
  <rect fill="rgb(255,255,255)" height="40" stroke="rgb(0,0,0)" width="128" x="832" y="40" />
  <text fill="rgb(0,0,0)" font-family="sans-serif" font-size="11" font-style="normal" font-weight="normal" text-anchor="middle" textLength="117" x="896" y="66">PilotingConfiguration</text>
  <rect fill="rgb(255,255,255)" height="40" stroke="rgb(0,0,0)" width="128" x="1024" y="40" />
  <text fill="rgb(0,0,0)" font-family="sans-serif" font-size="11" font-style="normal" font-weight="normal" text-anchor="middle" textLength="87" x="1088" y="65">StateXYHandler</text>
  <path d="M 136 135 L 312 135" fill="none" stroke="rgb(0,0,0)" />
  <polygon fill="rgb(0,0,0)" points="304,131 312,135 304,139" stroke="rgb(0,0,0)" />
  <path d="M 328 201 L 504 201" fill="none" stroke="rgb(0,0,0)" />
  <polygon fill="rgb(0,0,0)" points="496,197 504,201 496,205" stroke="rgb(0,0,0)" />
  <path d="M 328 251 L 504 251" fill="none" stroke="rgb(0,0,0)" stroke-dasharray="4" />
  <polygon fill="rgb(0,0,0)" points="336,247 328,251 336,255" stroke="rgb(0,0,0)" />
  <path d="M 328 317 L 696 317" fill="none" stroke="rgb(0,0,0)" />
  <polygon fill="rgb(0,0,0)" points="688,313 696,317 688,321" stroke="rgb(0,0,0)" />
  <path d="M 328 367 L 696 367" fill="none" stroke="rgb(0,0,0)" stroke-dasharray="4" />
  <polygon fill="rgb(0,0,0)" points="336,363 328,367 336,371" stroke="rgb(0,0,0)" />
  <path d="M 328 433 L 696 433" fill="none" stroke="rgb(0,0,0)" />
  <polygon fill="rgb(0,0,0)" points="688,429 696,433 688,437" stroke="rgb(0,0,0)" />
  <path d="M 712 499 L 888 499" fill="none" stroke="rgb(0,0,0)" />
  <polygon fill="rgb(0,0,0)" points="880,495 888,499 880,503" stroke="rgb(0,0,0)" />
  <path d="M 904 576 L 1080 576" fill="none" stroke="rgb(0,0,0)" />
  <polygon fill="rgb(0,0,0)" points="1072,572 1080,576 1072,580" stroke="rgb(0,0,0)" />
  <path d="M 904 641 L 1080 641" fill="none" stroke="rgb(0,0,0)" stroke-dasharray="4" />
  <polygon fill="rgb(0,0,0)" points="912,637 904,641 912,645" stroke="rgb(0,0,0)" />
  <path d="M 712 706 L 888 706" fill="none" stroke="rgb(0,0,0)" stroke-dasharray="4" />
  <polygon fill="rgb(0,0,0)" points="720,702 712,706 720,710" stroke="rgb(0,0,0)" />
  <path d="M 328 756 L 696 756" fill="none" stroke="rgb(0,0,0)" stroke-dasharray="4" />
  <polygon fill="rgb(0,0,0)" points="336,752 328,756 336,760" stroke="rgb(0,0,0)" />
  <path d="M 136 806 L 312 806" fill="none" stroke="rgb(0,0,0)" stroke-dasharray="4" />
  <polygon fill="rgb(0,0,0)" points="144,802 136,806 144,810" stroke="rgb(0,0,0)" />
  <text fill="rgb(0,0,0)" font-family="sans-serif" font-size="11" font-style="normal" font-weight="normal" text-anchor="middle" textLength="25" x="152" y="133">init()</text>
  <text fill="rgb(0,0,0)" font-family="sans-serif" font-size="11" font-style="normal" font-weight="normal" text-anchor="middle" textLength="92" x="378" y="199">Leap.Controller()</text>
  <text fill="rgb(0,0,0)" font-family="sans-serif" font-size="11" font-style="normal" font-weight="normal" text-anchor="middle" textLength="78" x="371" y="315">LeapListener()</text>
  <text fill="rgb(0,0,0)" font-family="sans-serif" font-size="11" font-style="normal" font-weight="normal" text-anchor="middle" textLength="120" x="392" y="431">LeapListener.set_cfc()</text>
  <text fill="rgb(0,0,0)" font-family="sans-serif" font-size="11" font-style="normal" font-weight="normal" text-anchor="middle" textLength="142" x="787" y="497">PilotingConfiguration(cfc)</text>
  <text fill="rgb(0,0,0)" font-family="sans-serif" font-size="11" font-style="normal" font-weight="normal" text-anchor="middle" textLength="164" x="990" y="561">StateXYHandler.StateXYHandl</text>
  <text fill="rgb(0,0,0)" font-family="sans-serif" font-size="11" font-style="normal" font-weight="normal" text-anchor="middle" textLength="19" x="917" y="574">er()</text>
  <text fill="rgb(0,0,0)" font-family="sans-serif" font-size="11" font-style="normal" font-weight="normal" text-anchor="middle" textLength="147" x="1006" y="639">all state handlers initialized</text>
  <text fill="rgb(0,0,0)" font-family="sans-serif" font-size="11" font-style="normal" font-weight="normal" text-anchor="middle" textLength="50" x="863" y="704">initialized</text>
</svg>
