<?xml version='1.0' encoding='UTF-8'?>
<!DOCTYPE svg PUBLIC "-//W3C//DTD SVG 1.0//EN" "http://www.w3.org/TR/2001/REC-SVG-20010904/DTD/svg10.dtd">
<svg viewBox="0 0 640 471" xmlns="http://www.w3.org/2000/svg" xmlns:inkspace="http://www.inkscape.org/namespaces/inkscape" xmlns:xlink="http://www.w3.org/1999/xlink">
  <defs id="defs_block">
    <filter height="1.504" id="filter_blur" inkspace:collect="always" width="1.1575" x="-0.07875" y="-0.252">
      <feGaussianBlur id="feGaussianBlur3780" inkspace:collect="always" stdDeviation="4.2" />
    </filter>
  </defs>
  <title>blockdiag</title>
  <desc>seqdiag {
  # shutdown process (by keypress)

  main -&gt; main [label = "sys.stdin.readline()"];
  main -&gt; DetectionController [label = "DetectionController.cleanup()"];
  main  &lt;-- DetectionController;

  main -&gt; CrazyflieController [label = "CrazyflieController.cleanup()"];
  main  &lt;--  CrazyflieController;

}
</desc>
  <rect fill="rgb(0,0,0)" height="294" style="filter:url(#filter_blur);opacity:0.7;fill-opacity:1" width="8" x="127" y="155" />
  <rect fill="rgb(0,0,0)" height="50" style="filter:url(#filter_blur);opacity:0.7;fill-opacity:1" width="8" x="319" y="237" />
  <rect fill="rgb(0,0,0)" height="50" style="filter:url(#filter_blur);opacity:0.7;fill-opacity:1" width="8" x="511" y="353" />
  <rect fill="rgb(0,0,0)" height="40" stroke="rgb(0,0,0)" style="filter:url(#filter_blur);opacity:0.7;fill-opacity:1" width="128" x="67" y="46" />
  <rect fill="rgb(0,0,0)" height="40" stroke="rgb(0,0,0)" style="filter:url(#filter_blur);opacity:0.7;fill-opacity:1" width="128" x="259" y="46" />
  <rect fill="rgb(0,0,0)" height="40" stroke="rgb(0,0,0)" style="filter:url(#filter_blur);opacity:0.7;fill-opacity:1" width="128" x="451" y="46" />
  <path d="M 128 80 L 128 459" fill="none" stroke="rgb(0,0,0)" stroke-dasharray="8 4" />
  <rect fill="moccasin" height="294" stroke="rgb(0,0,0)" width="8" x="124" y="149" />
  <path d="M 320 80 L 320 459" fill="none" stroke="rgb(0,0,0)" stroke-dasharray="8 4" />
  <rect fill="moccasin" height="50" stroke="rgb(0,0,0)" width="8" x="316" y="231" />
  <path d="M 512 80 L 512 459" fill="none" stroke="rgb(0,0,0)" stroke-dasharray="8 4" />
  <rect fill="moccasin" height="50" stroke="rgb(0,0,0)" width="8" x="508" y="347" />
  <rect fill="rgb(255,255,255)" height="40" stroke="rgb(0,0,0)" width="128" x="64" y="40" />
  <text fill="rgb(0,0,0)" font-family="sans-serif" font-size="11" font-style="normal" font-weight="normal" text-anchor="middle" textLength="26" x="128" y="65">main</text>
  <rect fill="rgb(255,255,255)" height="40" stroke="rgb(0,0,0)" width="128" x="256" y="40" />
  <text fill="rgb(0,0,0)" font-family="sans-serif" font-size="11" font-style="normal" font-weight="normal" text-anchor="middle" textLength="107" x="320" y="66">DetectionController</text>
  <rect fill="rgb(255,255,255)" height="40" stroke="rgb(0,0,0)" width="128" x="448" y="40" />
  <text fill="rgb(0,0,0)" font-family="sans-serif" font-size="11" font-style="normal" font-weight="normal" text-anchor="middle" textLength="103" x="512" y="66">CrazyflieController</text>
  <path d="M 136 149 L 224 149" fill="none" stroke="rgb(0,0,0)" />
  <path d="M 224 149 L 224 165" fill="none" stroke="rgb(0,0,0)" />
  <path d="M 224 165 L 136 165" fill="none" stroke="rgb(0,0,0)" />
  <polygon fill="rgb(0,0,0)" points="144,161 136,165 144,169" stroke="rgb(0,0,0)" />
  <path d="M 136 231 L 312 231" fill="none" stroke="rgb(0,0,0)" />
  <polygon fill="rgb(0,0,0)" points="304,227 312,231 304,235" stroke="rgb(0,0,0)" />
  <path d="M 136 281 L 312 281" fill="none" stroke="rgb(0,0,0)" stroke-dasharray="4" />
  <polygon fill="rgb(0,0,0)" points="144,277 136,281 144,285" stroke="rgb(0,0,0)" />
  <path d="M 136 347 L 504 347" fill="none" stroke="rgb(0,0,0)" />
  <polygon fill="rgb(0,0,0)" points="496,343 504,347 496,351" stroke="rgb(0,0,0)" />
  <path d="M 136 397 L 504 397" fill="none" stroke="rgb(0,0,0)" stroke-dasharray="4" />
  <polygon fill="rgb(0,0,0)" points="144,393 136,397 144,401" stroke="rgb(0,0,0)" />
  <text fill="rgb(0,0,0)" font-family="sans-serif" font-size="11" font-style="normal" font-weight="normal" text-anchor="middle" textLength="102" x="187" y="141">sys.stdin.readline()</text>
  <text fill="rgb(0,0,0)" font-family="sans-serif" font-size="11" font-style="normal" font-weight="normal" text-anchor="middle" textLength="159" x="219" y="229">DetectionController.cleanup()</text>
  <text fill="rgb(0,0,0)" font-family="sans-serif" font-size="11" font-style="normal" font-weight="normal" text-anchor="middle" textLength="155" x="217" y="345">CrazyflieController.cleanup()</text>
</svg>
