<?xml version='1.0' encoding='UTF-8'?>
<!DOCTYPE svg PUBLIC "-//W3C//DTD SVG 1.0//EN" "http://www.w3.org/TR/2001/REC-SVG-20010904/DTD/svg10.dtd">
<svg viewBox="0 0 677 551" xmlns="http://www.w3.org/2000/svg" xmlns:inkspace="http://www.inkscape.org/namespaces/inkscape" xmlns:xlink="http://www.w3.org/1999/xlink">
  <defs id="defs_block">
    <filter height="1.504" id="filter_blur" inkspace:collect="always" width="1.1575" x="-0.07875" y="-0.252">
      <feGaussianBlur id="feGaussianBlur3780" inkspace:collect="always" stdDeviation="4.2" />
    </filter>
  </defs>
  <title>blockdiag</title>
  <desc>seqdiag {
  main  -&gt;  CrazyflieController [label = "CrazyflieController()"]
  main  &lt;--  CrazyflieController
  main  -&gt;  CrazyflieController [label = "connect()"];
            CrazyflieController -&gt;  Crazyflie [label = "cf.open_link()", rightnote = "initiate Crazyflie API"];
            CrazyflieController &lt;--  Crazyflie
  main  &lt;-- CrazyflieController
}
</desc>
  <rect fill="rgb(0,0,0)" height="387" style="filter:url(#filter_blur);opacity:0.7;fill-opacity:1" width="8" x="127" y="142" />
  <rect fill="rgb(0,0,0)" height="50" style="filter:url(#filter_blur);opacity:0.7;fill-opacity:1" width="8" x="319" y="142" />
  <rect fill="rgb(0,0,0)" height="196" style="filter:url(#filter_blur);opacity:0.7;fill-opacity:1" width="8" x="319" y="257" />
  <rect fill="rgb(0,0,0)" height="50" style="filter:url(#filter_blur);opacity:0.7;fill-opacity:1" width="8" x="511" y="323" />
  <polygon fill="rgb(0,0,0)" points="531,315 656,315 664,323 664,331 531,331 531,315" stroke="rgb(0,0,0)" style="filter:url(#filter_blur);opacity:0.7;fill-opacity:1" />
  <rect fill="rgb(0,0,0)" height="40" stroke="rgb(0,0,0)" style="filter:url(#filter_blur);opacity:0.7;fill-opacity:1" width="128" x="67" y="46" />
  <rect fill="rgb(0,0,0)" height="40" stroke="rgb(0,0,0)" style="filter:url(#filter_blur);opacity:0.7;fill-opacity:1" width="128" x="259" y="46" />
  <rect fill="rgb(0,0,0)" height="40" stroke="rgb(0,0,0)" style="filter:url(#filter_blur);opacity:0.7;fill-opacity:1" width="128" x="451" y="46" />
  <path d="M 128 80 L 128 539" fill="none" stroke="rgb(0,0,0)" stroke-dasharray="8 4" />
  <rect fill="moccasin" height="387" stroke="rgb(0,0,0)" width="8" x="124" y="136" />
  <path d="M 320 80 L 320 539" fill="none" stroke="rgb(0,0,0)" stroke-dasharray="8 4" />
  <rect fill="moccasin" height="50" stroke="rgb(0,0,0)" width="8" x="316" y="136" />
  <rect fill="moccasin" height="196" stroke="rgb(0,0,0)" width="8" x="316" y="251" />
  <path d="M 512 80 L 512 539" fill="none" stroke="rgb(0,0,0)" stroke-dasharray="8 4" />
  <rect fill="moccasin" height="50" stroke="rgb(0,0,0)" width="8" x="508" y="317" />
  <rect fill="rgb(255,255,255)" height="40" stroke="rgb(0,0,0)" width="128" x="64" y="40" />
  <text fill="rgb(0,0,0)" font-family="sans-serif" font-size="11" font-style="normal" font-weight="normal" text-anchor="middle" textLength="26" x="128" y="65">main</text>
  <rect fill="rgb(255,255,255)" height="40" stroke="rgb(0,0,0)" width="128" x="256" y="40" />
  <text fill="rgb(0,0,0)" font-family="sans-serif" font-size="11" font-style="normal" font-weight="normal" text-anchor="middle" textLength="103" x="320" y="66">CrazyflieController</text>
  <rect fill="rgb(255,255,255)" height="40" stroke="rgb(0,0,0)" width="128" x="448" y="40" />
  <text fill="rgb(0,0,0)" font-family="sans-serif" font-size="11" font-style="normal" font-weight="normal" text-anchor="middle" textLength="48" x="512" y="66">Crazyflie</text>
  <path d="M 136 136 L 312 136" fill="none" stroke="rgb(0,0,0)" />
  <polygon fill="rgb(0,0,0)" points="304,132 312,136 304,140" stroke="rgb(0,0,0)" />
  <path d="M 136 186 L 312 186" fill="none" stroke="rgb(0,0,0)" stroke-dasharray="4" />
  <polygon fill="rgb(0,0,0)" points="144,182 136,186 144,190" stroke="rgb(0,0,0)" />
  <path d="M 136 251 L 312 251" fill="none" stroke="rgb(0,0,0)" />
  <polygon fill="rgb(0,0,0)" points="304,247 312,251 304,255" stroke="rgb(0,0,0)" />
  <path d="M 328 317 L 504 317" fill="none" stroke="rgb(0,0,0)" />
  <polygon fill="rgb(0,0,0)" points="496,313 504,317 496,321" stroke="rgb(0,0,0)" />
  <polygon fill="rgb(255,182,193)" points="528,309 653,309 661,317 661,325 528,325 528,309" stroke="rgb(0,0,0)" />
  <path d="M 653 309 L 653 317" fill="none" stroke="rgb(0,0,0)" />
  <path d="M 653 317 L 661 317" fill="none" stroke="rgb(0,0,0)" />
  <text fill="rgb(0,0,0)" font-family="sans-serif" font-size="11" font-style="normal" font-weight="normal" text-anchor="middle" textLength="109" x="590" y="323">initiate Crazyflie API</text>
  <path d="M 328 367 L 504 367" fill="none" stroke="rgb(0,0,0)" stroke-dasharray="4" />
  <polygon fill="rgb(0,0,0)" points="336,363 328,367 336,371" stroke="rgb(0,0,0)" />
  <path d="M 136 447 L 312 447" fill="none" stroke="rgb(0,0,0)" stroke-dasharray="4" />
  <polygon fill="rgb(0,0,0)" points="144,443 136,447 144,451" stroke="rgb(0,0,0)" />
  <text fill="rgb(0,0,0)" font-family="sans-serif" font-size="11" font-style="normal" font-weight="normal" text-anchor="middle" textLength="110" x="195" y="134">CrazyflieController()</text>
  <text fill="rgb(0,0,0)" font-family="sans-serif" font-size="11" font-style="normal" font-weight="normal" text-anchor="middle" textLength="51" x="165" y="249">connect()</text>
  <text fill="rgb(0,0,0)" font-family="sans-serif" font-size="11" font-style="normal" font-weight="normal" text-anchor="middle" textLength="74" x="369" y="315">cf.open_link()</text>
</svg>
